# xmcd
# 
# Track frame offsets:
#     150
#     11793
#     25605
#     35555
#     48883
#     61057
#     73189
#     86245
#     99334
#     115597
# 
# Disc length: 1765
# 
# Revision: 0
# Processed by: cddbd v1.5.2PL0 Copyright (c) Steve Scherf et al.
# Submitted via: fre:ac v1.0.17
# 
DISCID=7806e30a
DTITLE=Ray Charles  uests - Friendship
DYEAR=0
DGENRE=Country
TTITLE0=Two Old Cats Like Us
TTITLE1=This Old Heart
TTITLE2=We Didn't See a Thing
TTITLE3=Who Cares
TTITLE4=Rock and Roll Shoes
TTITLE5=Friendship
TTITLE6=It Ain't Gonna Worry My Mind
TTITLE7=Little Hotel Room
TTITLE8=Crazy Old Soldier
TTITLE9=Seven Spanish Angels
EXTD=
EXTT0=Hank Williams Jnr.
EXTT1=Oak Ridge Boys
EXTT2=George Jones and Chet Atkins
EXTT3=Janie Fricks
EXTT4=B. J. Thomas
EXTT5=Ricky Skaggs
EXTT6=Mickey Gilley
EXTT7=Merle Haggard
EXTT8=Johnny Cash
EXTT9=Willie Nelson
PLAYORDER=
